<?xml version="1.0" encoding="UTF-8"?>
<svg xmlns="http://www.w3.org/2000/svg" viewBox="0 0 1920 1080">
  <defs>
    <linearGradient id="bgLeft" x1="0" y1="0" x2="0" y2="1">
      <stop offset="0%" stop-color="#0b0b0b"/>
      <stop offset="100%" stop-color="#1a1a1a"/>
    </linearGradient>
    <linearGradient id="bgRight" x1="0" y1="0" x2="0" y2="1">
      <stop offset="0%" stop-color="#2f3640"/>
      <stop offset="100%" stop-color="#3a3f46"/>
    </linearGradient>
    <linearGradient id="whiteFeather" x1="0" y1="0" x2="1" y2="0">
      <stop offset="0%" stop-color="#ffffff"/>
      <stop offset="100%" stop-color="#cfcfcf"/>
    </linearGradient>
    <linearGradient id="blackFeather" x1="0" y1="0" x2="1" y2="0">
      <stop offset="0%" stop-color="#101010"/>
      <stop offset="100%" stop-color="#1f1f1f"/>
    </linearGradient>
    <filter id="grain" x="-20%" y="-20%" width="140%" height="140%">
      <feTurbulence type="fractalNoise" baseFrequency="0.9" numOctaves="1" stitchTiles="stitch"/>
      <feColorMatrix type="saturate" values="0"/>
      <feComponentTransfer>
        <feFuncA type="table" tableValues="0 0.04"/>
      </feComponentTransfer>
      <feBlend mode="multiply" in2="SourceGraphic"/>
    </filter>
  </defs>

  <!-- Split background -->
  <rect x="0" y="0" width="960" height="1080" fill="url(#bgLeft)" filter="url(#grain)"/>
  <rect x="960" y="0" width="960" height="1080" fill="url(#bgRight)" filter="url(#grain)"/>
  <rect x="958" y="0" width="4" height="1080" fill="#111" opacity="0.6"/>

  <!-- Left (white) wing -->
  <g transform="translate(930,520) scale(1) rotate(0)">
    <path d="M-40,-20 C -200,-160 -360,-220 -520,-260 C -640,-290 -740,-280 -820,-230 C -860,-200 -870,-160 -860,-120 C -840,-40 -760,0 -640,40 C -520,80 -380,120 -220,140"
          fill="none" stroke="url(#whiteFeather)" stroke-width="46" stroke-linecap="round"/>
    <path d="M-380,120 C -420,170 -470,210 -520,230" fill="none" stroke="url(#whiteFeather)" stroke-width="40" stroke-linecap="round"/>
    <path d="M-300,100 C -340,160 -390,200 -440,220" fill="none" stroke="url(#whiteFeather)" stroke-width="36" stroke-linecap="round"/>
    <path d="M-220,80 C -260,150 -310,190 -360,210" fill="none" stroke="url(#whiteFeather)" stroke-width="32" stroke-linecap="round"/>
    <path d="M-140,60 C -180,130 -230,170 -280,190" fill="none" stroke="url(#whiteFeather)" stroke-width="28" stroke-linecap="round"/>
  </g>

  <!-- Right (black) wing -->
  <g transform="translate(990,520) scale(1) rotate(0)">
    <path d="M40,-20 C 200,-160 360,-220 520,-260 C 640,-290 740,-280 820,-230 C 860,-200 870,-160 860,-120 C 840,-40 760,0 640,40 C 520,80 380,120 220,140"
          fill="none" stroke="url(#blackFeather)" stroke-width="46" stroke-linecap="round"/>
    <path d="M380,120 C 420,170 470,210 520,230" fill="none" stroke="url(#blackFeather)" stroke-width="40" stroke-linecap="round"/>
    <path d="M300,100 C 340,160 390,200 440,220" fill="none" stroke="url(#blackFeather)" stroke-width="36" stroke-linecap="round"/>
    <path d="M220,80 C 260,150 310,190 360,210" fill="none" stroke="url(#blackFeather)" stroke-width="32" stroke-linecap="round"/>
    <path d="M140,60 C 180,130 230,170 280,190" fill="none" stroke="url(#blackFeather)" stroke-width="28" stroke-linecap="round"/>
  </g>

  <!-- Subtle center glow to separate wings -->
  <radialGradient id="centerGlow" cx="0.5" cy="0.5" r="0.15">
    <stop offset="0%" stop-color="#ffffff" stop-opacity="0.35"/>
    <stop offset="100%" stop-color="#ffffff" stop-opacity="0"/>
  </radialGradient>
  <rect x="0" y="0" width="1920" height="1080" fill="url(#centerGlow)"/>
</svg>